<svg xmlns="http://www.w3.org/2000/svg" viewBox="105 97 833 833">
  <!-- Monogram fill adapts to the browser/OS theme: dark ink on light tabs,
       white on dark tabs. Transparent background. -->
  <style>
    path { fill: #120111; }
    @media (prefers-color-scheme: dark) {
      path { fill: #fff; }
    }
  </style>
  <path d="M833.12,281.73c-48.13-18.19-119.7-1.48-182.95,72.59-22.79,26.11-41.52,57.1-59.73,87.45l-176.21-4.01c.19-.33.37-.65.56-.98-.09,0-.18,0-.27,0,2.49-5.37,19.73-41.83,47.25-80.55,18.14-25.63,43.87-53.38,60.29-65.93,11.36-8.68,20.41-15.57,20.41-15.57,0,0-74.02,23.41-148.72,162.38-27.45.33-107.96,4.68-156.86,42.68-4.39,3.48-8.31,6.89-11.81,10.2l-.05-.59c-.9,1.19-1.85,2.31-2.83,3.4-1.46,1.46-2.84,2.9-4.14,4.33-9.36,9.36-21.79,20.52-38.24,57.56-26.99,65.75-9.81,150.98,72.16,183.36,101.18,41.84,178.75-21.4,191.41-31.86,47.34-34.92,79.21-97.28,97.82-129.26,24.68-44.26,38.1-74.85,57.98-113.25,5,.25,10.65.54,16.7.87,44.11,1.48,49.14,3.12,100.37-2.31,99.52-11.56,136.92-55.4,142.84-67.39,21.77-28.56,29.6-88.95-25.96-113.12ZM311.27,458.99c23.16-4.32,29.52-4.37,38.34-5.38,5.79-.66,24.31-.84,36.26-.81-6.33,10.84-17.03,27.87-34.47,52.65-34.89,45.15-60.27,69.45-97.9,67.63-33.46-2.22-44.62-30.1-32.72-53.29,20.78-37.58,67.34-56.46,90.5-60.79ZM565.59,486.47c-11.23,19.42-47.95,93.85-107.32,158.8-59.38,64.96-121.62,67.87-173.23,56.68-51.61-11.19-96.3-54.79-91.2-114.47,1.38-8.15,3.04-15.53,4.87-22.24,0,.09-.01.18-.02.27,2.78,11.06,10.87,31.18,42.51,37.85,19.07.72,66.12,14.98,125.32-79.55,17.84-30.52,28.71-51.63,38.93-70.36l172.4,9.19s0,.01-.01.02c0,0,.06,0,.18,0l-12.42,23.8ZM847.15,357.92c-1.41,3.79-11.16,33.16-49.72,53.68-38.56,20.52-88.54,25.05-124.77,28.02-14.8,1.66-40.97,1.76-62.11,2.61.2-.36.39-.72.59-1.08,8.01-14.04,42.97-85.02,98.83-124.98,27.84-20.56,74.35-35.28,108.7-22.95,42.22,15.17,29.88,60.92,28.48,64.7Z"/>
</svg>
